<svg viewBox="0 0 65.25 94.25" fill="none" xmlns="http://www.w3.org/2000/svg">
<g id="Vector">
<path d="M54.375 25.375H50.75V29H54.375V25.375Z" fill="black"/>
<path d="M58 29H54.375V32.625H58V29Z" fill="black"/>
<path d="M58 32.625H54.375V36.25H58V32.625Z" fill="black"/>
<path d="M54.375 36.25H50.75V39.875H54.375V36.25Z" fill="black"/>
<path d="M50.75 39.875H47.125V43.5H50.75V39.875Z" fill="black"/>
<path d="M47.125 43.5H43.5V47.125H47.125V43.5Z" fill="black"/>
<path d="M43.5 47.125H39.875V50.75H43.5V47.125Z" fill="black"/>
<path d="M39.875 50.75H36.25V54.375H39.875V50.75Z" fill="black"/>
<path d="M36.25 54.375H32.625V58H36.25V54.375Z" fill="black"/>
<path d="M32.625 58H29V61.625H32.625V58Z" fill="black"/>
<path d="M29 61.625H25.375V65.25H29V61.625Z" fill="black"/>
<path d="M25.375 58H21.75V61.625H25.375V58Z" fill="black"/>
<path d="M21.75 54.375H18.125V58H21.75V54.375Z" fill="black"/>
<path d="M18.125 50.75H14.5V54.375H18.125V50.75Z" fill="black"/>
<path d="M14.5 47.125H10.875V50.75H14.5V47.125Z" fill="black"/>
<path d="M10.875 43.5H7.25V47.125H10.875V43.5Z" fill="black"/>
<path d="M21.75 25.375H18.125V29H21.75V25.375Z" fill="black"/>
<path d="M18.125 29H14.5V32.625H18.125V29Z" fill="black"/>
<path d="M14.5 32.625H10.875V36.25H14.5V32.625Z" fill="black"/>
<path d="M10.875 36.25H7.25V39.875H10.875V36.25Z" fill="black"/>
<path d="M7.25 39.875H3.625V43.5H7.25V39.875Z" fill="black"/>
<path d="M54.375 54.375H50.75V58H54.375V54.375Z" fill="#9E9E9E"/>
<path d="M58 54.375H54.375V58H58V54.375Z" fill="var(--fill-0, #878787)"/>
<path d="M50.75 54.375H47.125V58H50.75V54.375Z" fill="var(--fill-0, #878787)"/>
<path d="M54.375 58H50.75V61.625H54.375V58Z" fill="var(--fill-0, #878787)"/>
<path d="M54.375 50.75H50.75V54.375H54.375V50.75Z" fill="var(--fill-0, #878787)"/>
<path d="M61.625 54.375H58V58H61.625V54.375Z" fill="#9E9E9E"/>
<path d="M58 58H54.375V61.625H58V58Z" fill="#9E9E9E"/>
<path d="M58 50.75H54.375V54.375H58V50.75Z" fill="#9E9E9E"/>
<path d="M47.125 54.375H43.5V58H47.125V54.375Z" fill="#9E9E9E"/>
<path d="M50.75 58H47.125V61.625H50.75V58Z" fill="#9E9E9E"/>
<path d="M50.75 50.75H47.125V54.375H50.75V50.75Z" fill="#9E9E9E"/>
<path d="M54.375 61.625H50.75V65.25H54.375V61.625Z" fill="#9E9E9E"/>
<path d="M54.375 47.125H50.75V50.75H54.375V47.125Z" fill="#9E9E9E"/>
<path d="M61.625 58H58V61.625H61.625V58Z" fill="var(--fill-0, #878787)"/>
<path d="M61.625 50.75H58V54.375H61.625V50.75Z" fill="var(--fill-0, #878787)"/>
<path d="M58 61.625H54.375V65.25H58V61.625Z" fill="var(--fill-0, #878787)"/>
<path d="M58 47.125H54.375V50.75H58V47.125Z" fill="var(--fill-0, #878787)"/>
<path d="M43.5 54.375H39.875V58H43.5V54.375Z" fill="var(--fill-0, #878787)"/>
<path d="M47.125 58H43.5V61.625H47.125V58Z" fill="var(--fill-0, #878787)"/>
<path d="M47.125 50.75H43.5V54.375H47.125V50.75Z" fill="var(--fill-0, #878787)"/>
<path d="M50.75 61.625H47.125V65.25H50.75V61.625Z" fill="var(--fill-0, #878787)"/>
<path d="M50.75 47.125H47.125V50.75H50.75V47.125Z" fill="var(--fill-0, #878787)"/>
<path d="M54.375 65.25H50.75V68.875H54.375V65.25Z" fill="var(--fill-0, #878787)"/>
<path d="M54.375 43.5H50.75V47.125H54.375V43.5Z" fill="var(--fill-0, #878787)"/>
<path d="M61.625 61.625H58V65.25H61.625V61.625Z" fill="#9E9E9E"/>
<path d="M61.625 47.125H58V50.75H61.625V47.125Z" fill="#9E9E9E"/>
<path d="M58 65.25H54.375V68.875H58V65.25Z" fill="#9E9E9E"/>
<path d="M58 43.5H54.375V47.125H58V43.5Z" fill="#9E9E9E"/>
<path d="M39.875 54.375H36.25V58H39.875V54.375Z" fill="#9E9E9E"/>
<path d="M43.5 58H39.875V61.625H43.5V58Z" fill="#9E9E9E"/>
<path d="M43.5 50.75H39.875V54.375H43.5V50.75Z" fill="#9E9E9E"/>
<path d="M47.125 61.625H43.5V65.25H47.125V61.625Z" fill="#9E9E9E"/>
<path d="M47.125 47.125H43.5V50.75H47.125V47.125Z" fill="#9E9E9E"/>
<path d="M50.75 65.25H47.125V68.875H50.75V65.25Z" fill="#9E9E9E"/>
<path d="M50.75 43.5H47.125V47.125H50.75V43.5Z" fill="#9E9E9E"/>
<path d="M54.375 68.875H50.75V72.5H54.375V68.875Z" fill="#9E9E9E"/>
<path d="M54.375 39.875H50.75V43.5H54.375V39.875Z" fill="#9E9E9E"/>
<path d="M61.625 65.25H58V68.875H61.625V65.25Z" fill="var(--fill-0, #878787)"/>
<path d="M61.625 43.5H58V47.125H61.625V43.5Z" fill="var(--fill-0, #878787)"/>
<path d="M58 68.875H54.375V72.5H58V68.875Z" fill="var(--fill-0, #878787)"/>
<path d="M58 39.875H54.375V43.5H58V39.875Z" fill="var(--fill-0, #878787)"/>
<path d="M39.875 58H36.25V61.625H39.875V58Z" fill="var(--fill-0, #878787)"/>
<path d="M43.5 61.625H39.875V65.25H43.5V61.625Z" fill="var(--fill-0, #878787)"/>
<path d="M47.125 65.25H43.5V68.875H47.125V65.25Z" fill="var(--fill-0, #878787)"/>
<path d="M50.75 68.875H47.125V72.5H50.75V68.875Z" fill="var(--fill-0, #878787)"/>
<path d="M54.375 72.5H50.75V76.125H54.375V72.5Z" fill="var(--fill-0, #878787)"/>
<path d="M61.625 68.875H58V72.5H61.625V68.875Z" fill="#9E9E9E"/>
<path d="M61.625 39.875H58V43.5H61.625V39.875Z" fill="#9E9E9E"/>
<path d="M58 72.5H54.375V76.125H58V72.5Z" fill="#9E9E9E"/>
<path d="M58 36.25H54.375V39.875H58V36.25Z" fill="#9E9E9E"/>
<path d="M36.25 58H32.625V61.625H36.25V58Z" fill="#9E9E9E"/>
<path d="M39.875 61.625H36.25V65.25H39.875V61.625Z" fill="#9E9E9E"/>
<path d="M43.5 65.25H39.875V68.875H43.5V65.25Z" fill="#9E9E9E"/>
<path d="M47.125 68.875H43.5V72.5H47.125V68.875Z" fill="#9E9E9E"/>
<path d="M50.75 72.5H47.125V76.125H50.75V72.5Z" fill="#9E9E9E"/>
<path d="M54.375 76.125H50.75V79.75H54.375V76.125Z" fill="#9E9E9E"/>
<path d="M61.625 72.5H58V76.125H61.625V72.5Z" fill="var(--fill-0, #878787)"/>
<path d="M61.625 36.25H58V39.875H61.625V36.25Z" fill="var(--fill-0, #878787)"/>
<path d="M58 76.125H54.375V79.75H58V76.125Z" fill="var(--fill-0, #878787)"/>
<path d="M36.25 61.625H32.625V65.25H36.25V61.625Z" fill="var(--fill-0, #878787)"/>
<path d="M39.875 65.25H36.25V68.875H39.875V65.25Z" fill="var(--fill-0, #878787)"/>
<path d="M43.5 68.875H39.875V72.5H43.5V68.875Z" fill="var(--fill-0, #878787)"/>
<path d="M47.125 72.5H43.5V76.125H47.125V72.5Z" fill="var(--fill-0, #878787)"/>
<path d="M50.75 76.125H47.125V79.75H50.75V76.125Z" fill="var(--fill-0, #878787)"/>
<path d="M54.375 79.75H50.75V83.375H54.375V79.75Z" fill="var(--fill-0, #878787)"/>
<path d="M61.625 76.125H58V79.75H61.625V76.125Z" fill="#9E9E9E"/>
<path d="M61.625 32.625H58V36.25H61.625V32.625Z" fill="#9E9E9E"/>
<path d="M58 79.75H54.375V83.375H58V79.75Z" fill="#9E9E9E"/>
<path d="M32.625 61.625H29V65.25H32.625V61.625Z" fill="#9E9E9E"/>
<path d="M36.25 65.25H32.625V68.875H36.25V65.25Z" fill="#9E9E9E"/>
<path d="M39.875 68.875H36.25V72.5H39.875V68.875Z" fill="#9E9E9E"/>
<path d="M43.5 72.5H39.875V76.125H43.5V72.5Z" fill="#9E9E9E"/>
<path d="M47.125 76.125H43.5V79.75H47.125V76.125Z" fill="#9E9E9E"/>
<path d="M50.75 79.75H47.125V83.375H50.75V79.75Z" fill="#9E9E9E"/>
<path d="M54.375 83.375H50.75V87H54.375V83.375Z" fill="#9E9E9E"/>
<path d="M61.625 79.75H58V83.375H61.625V79.75Z" fill="var(--fill-0, #878787)"/>
<path d="M61.625 29H58V32.625H61.625V29Z" fill="var(--fill-0, #878787)"/>
<path d="M58 83.375H54.375V87H58V83.375Z" fill="var(--fill-0, #878787)"/>
<path d="M32.625 65.25H29V68.875H32.625V65.25Z" fill="var(--fill-0, #878787)"/>
<path d="M36.25 68.875H32.625V72.5H36.25V68.875Z" fill="var(--fill-0, #878787)"/>
<path d="M39.875 72.5H36.25V76.125H39.875V72.5Z" fill="var(--fill-0, #878787)"/>
<path d="M43.5 76.125H39.875V79.75H43.5V76.125Z" fill="var(--fill-0, #878787)"/>
<path d="M47.125 79.75H43.5V83.375H47.125V79.75Z" fill="var(--fill-0, #878787)"/>
<path d="M50.75 83.375H47.125V87H50.75V83.375Z" fill="var(--fill-0, #878787)"/>
<path d="M54.375 87H50.75V90.625H54.375V87Z" fill="var(--fill-0, #878787)"/>
<path d="M61.625 83.375H58V87H61.625V83.375Z" fill="#9E9E9E"/>
<path d="M61.625 25.375H58V29H61.625V25.375Z" fill="#9E9E9E"/>
<path d="M58 87H54.375V90.625H58V87Z" fill="#9E9E9E"/>
<path d="M29 65.25H25.375V68.875H29V65.25Z" fill="#9E9E9E"/>
<path d="M32.625 68.875H29V72.5H32.625V68.875Z" fill="#9E9E9E"/>
<path d="M36.25 72.5H32.625V76.125H36.25V72.5Z" fill="#9E9E9E"/>
<path d="M39.875 76.125H36.25V79.75H39.875V76.125Z" fill="#9E9E9E"/>
<path d="M43.5 79.75H39.875V83.375H43.5V79.75Z" fill="#9E9E9E"/>
<path d="M47.125 83.375H43.5V87H47.125V83.375Z" fill="#9E9E9E"/>
<path d="M50.75 87H47.125V90.625H50.75V87Z" fill="#9E9E9E"/>
<path d="M58 25.375H54.375V29H58V25.375Z" fill="var(--fill-0, #878787)"/>
<path d="M61.625 21.75H58V25.375H61.625V21.75Z" fill="var(--fill-0, #878787)"/>
<path d="M25.375 65.25H21.75V68.875H25.375V65.25Z" fill="var(--fill-0, #878787)"/>
<path d="M29 68.875H25.375V72.5H29V68.875Z" fill="var(--fill-0, #878787)"/>
<path d="M32.625 72.5H29V76.125H32.625V72.5Z" fill="var(--fill-0, #878787)"/>
<path d="M36.25 76.125H32.625V79.75H36.25V76.125Z" fill="var(--fill-0, #878787)"/>
<path d="M39.875 79.75H36.25V83.375H39.875V79.75Z" fill="var(--fill-0, #878787)"/>
<path d="M43.5 83.375H39.875V87H43.5V83.375Z" fill="var(--fill-0, #878787)"/>
<path d="M47.125 87H43.5V90.625H47.125V87Z" fill="var(--fill-0, #878787)"/>
<path d="M58 21.75H54.375V25.375H58V21.75Z" fill="#9E9E9E"/>
<path d="M61.625 18.125H58V21.75H61.625V18.125Z" fill="#9E9E9E"/>
<path d="M21.75 65.25H18.125V68.875H21.75V65.25Z" fill="#9E9E9E"/>
<path d="M25.375 68.875H21.75V72.5H25.375V68.875Z" fill="#9E9E9E"/>
<path d="M25.375 61.625H21.75V65.25H25.375V61.625Z" fill="#9E9E9E"/>
<path d="M29 72.5H25.375V76.125H29V72.5Z" fill="#9E9E9E"/>
<path d="M32.625 76.125H29V79.75H32.625V76.125Z" fill="#9E9E9E"/>
<path d="M36.25 79.75H32.625V83.375H36.25V79.75Z" fill="#9E9E9E"/>
<path d="M39.875 83.375H36.25V87H39.875V83.375Z" fill="#9E9E9E"/>
<path d="M43.5 87H39.875V90.625H43.5V87Z" fill="#9E9E9E"/>
<path d="M54.375 21.75H50.75V25.375H54.375V21.75Z" fill="var(--fill-0, #878787)"/>
<path d="M58 18.125H54.375V21.75H58V18.125Z" fill="var(--fill-0, #878787)"/>
<path d="M18.125 65.25H14.5V68.875H18.125V65.25Z" fill="var(--fill-0, #878787)"/>
<path d="M21.75 68.875H18.125V72.5H21.75V68.875Z" fill="var(--fill-0, #878787)"/>
<path d="M21.75 61.625H18.125V65.25H21.75V61.625Z" fill="var(--fill-0, #878787)"/>
<path d="M25.375 72.5H21.75V76.125H25.375V72.5Z" fill="var(--fill-0, #878787)"/>
<path d="M29 76.125H25.375V79.75H29V76.125Z" fill="var(--fill-0, #878787)"/>
<path d="M32.625 79.75H29V83.375H32.625V79.75Z" fill="var(--fill-0, #878787)"/>
<path d="M36.25 83.375H32.625V87H36.25V83.375Z" fill="var(--fill-0, #878787)"/>
<path d="M39.875 87H36.25V90.625H39.875V87Z" fill="var(--fill-0, #878787)"/>
<path d="M58 14.5H54.375V18.125H58V14.5Z" fill="#9E9E9E"/>
<path d="M14.5 65.25H10.875V68.875H14.5V65.25Z" fill="#9E9E9E"/>
<path d="M18.125 68.875H14.5V72.5H18.125V68.875Z" fill="#9E9E9E"/>
<path d="M18.125 61.625H14.5V65.25H18.125V61.625Z" fill="#9E9E9E"/>
<path d="M21.75 72.5H18.125V76.125H21.75V72.5Z" fill="#9E9E9E"/>
<path d="M21.75 58H18.125V61.625H21.75V58Z" fill="#9E9E9E"/>
<path d="M25.375 76.125H21.75V79.75H25.375V76.125Z" fill="#9E9E9E"/>
<path d="M29 79.75H25.375V83.375H29V79.75Z" fill="#9E9E9E"/>
<path d="M32.625 83.375H29V87H32.625V83.375Z" fill="#9E9E9E"/>
<path d="M36.25 87H32.625V90.625H36.25V87Z" fill="#9E9E9E"/>
<path d="M54.375 14.5H50.75V18.125H54.375V14.5Z" fill="var(--fill-0, #878787)"/>
<path d="M10.875 65.25H7.25V68.875H10.875V65.25Z" fill="var(--fill-0, #878787)"/>
<path d="M14.5 68.875H10.875V72.5H14.5V68.875Z" fill="var(--fill-0, #878787)"/>
<path d="M14.5 61.625H10.875V65.25H14.5V61.625Z" fill="var(--fill-0, #878787)"/>
<path d="M18.125 72.5H14.5V76.125H18.125V72.5Z" fill="var(--fill-0, #878787)"/>
<path d="M18.125 58H14.5V61.625H18.125V58Z" fill="var(--fill-0, #878787)"/>
<path d="M21.75 76.125H18.125V79.75H21.75V76.125Z" fill="var(--fill-0, #878787)"/>
<path d="M25.375 79.75H21.75V83.375H25.375V79.75Z" fill="var(--fill-0, #878787)"/>
<path d="M29 83.375H25.375V87H29V83.375Z" fill="var(--fill-0, #878787)"/>
<path d="M32.625 87H29V90.625H32.625V87Z" fill="var(--fill-0, #878787)"/>
<path d="M7.25 65.25H3.625V68.875H7.25V65.25Z" fill="#9E9E9E"/>
<path d="M10.875 68.875H7.25V72.5H10.875V68.875Z" fill="#9E9E9E"/>
<path d="M10.875 61.625H7.25V65.25H10.875V61.625Z" fill="#9E9E9E"/>
<path d="M14.5 72.5H10.875V76.125H14.5V72.5Z" fill="#9E9E9E"/>
<path d="M14.5 58H10.875V61.625H14.5V58Z" fill="#9E9E9E"/>
<path d="M18.125 76.125H14.5V79.75H18.125V76.125Z" fill="#9E9E9E"/>
<path d="M18.125 54.375H14.5V58H18.125V54.375Z" fill="#9E9E9E"/>
<path d="M21.75 79.75H18.125V83.375H21.75V79.75Z" fill="#9E9E9E"/>
<path d="M25.375 83.375H21.75V87H25.375V83.375Z" fill="#9E9E9E"/>
<path d="M29 87H25.375V90.625H29V87Z" fill="#9E9E9E"/>
<path d="M7.25 68.875H3.625V72.5H7.25V68.875Z" fill="var(--fill-0, #878787)"/>
<path d="M7.25 61.625H3.625V65.25H7.25V61.625Z" fill="var(--fill-0, #878787)"/>
<path d="M10.875 72.5H7.25V76.125H10.875V72.5Z" fill="var(--fill-0, #878787)"/>
<path d="M10.875 58H7.25V61.625H10.875V58Z" fill="var(--fill-0, #878787)"/>
<path d="M14.5 76.125H10.875V79.75H14.5V76.125Z" fill="var(--fill-0, #878787)"/>
<path d="M14.5 54.375H10.875V58H14.5V54.375Z" fill="var(--fill-0, #878787)"/>
<path d="M18.125 79.75H14.5V83.375H18.125V79.75Z" fill="var(--fill-0, #878787)"/>
<path d="M21.75 83.375H18.125V87H21.75V83.375Z" fill="var(--fill-0, #878787)"/>
<path d="M25.375 87H21.75V90.625H25.375V87Z" fill="var(--fill-0, #878787)"/>
<path d="M7.25 72.5H3.625V76.125H7.25V72.5Z" fill="#9E9E9E"/>
<path d="M7.25 58H3.625V61.625H7.25V58Z" fill="#9E9E9E"/>
<path d="M10.875 76.125H7.25V79.75H10.875V76.125Z" fill="#9E9E9E"/>
<path d="M10.875 54.375H7.25V58H10.875V54.375Z" fill="#9E9E9E"/>
<path d="M14.5 79.75H10.875V83.375H14.5V79.75Z" fill="#9E9E9E"/>
<path d="M14.5 50.75H10.875V54.375H14.5V50.75Z" fill="#9E9E9E"/>
<path d="M18.125 83.375H14.5V87H18.125V83.375Z" fill="#9E9E9E"/>
<path d="M21.75 87H18.125V90.625H21.75V87Z" fill="#9E9E9E"/>
<path d="M7.25 76.125H3.625V79.75H7.25V76.125Z" fill="var(--fill-0, #878787)"/>
<path d="M7.25 54.375H3.625V58H7.25V54.375Z" fill="var(--fill-0, #878787)"/>
<path d="M10.875 79.75H7.25V83.375H10.875V79.75Z" fill="var(--fill-0, #878787)"/>
<path d="M10.875 50.75H7.25V54.375H10.875V50.75Z" fill="var(--fill-0, #878787)"/>
<path d="M14.5 83.375H10.875V87H14.5V83.375Z" fill="var(--fill-0, #878787)"/>
<path d="M18.125 87H14.5V90.625H18.125V87Z" fill="var(--fill-0, #878787)"/>
<path d="M7.25 79.75H3.625V83.375H7.25V79.75Z" fill="#9E9E9E"/>
<path d="M7.25 50.75H3.625V54.375H7.25V50.75Z" fill="#9E9E9E"/>
<path d="M10.875 83.375H7.25V87H10.875V83.375Z" fill="#9E9E9E"/>
<path d="M10.875 47.125H7.25V50.75H10.875V47.125Z" fill="#9E9E9E"/>
<path d="M14.5 87H10.875V90.625H14.5V87Z" fill="#9E9E9E"/>
<path d="M7.25 83.375H3.625V87H7.25V83.375Z" fill="var(--fill-0, #878787)"/>
<path d="M7.25 47.125H3.625V50.75H7.25V47.125Z" fill="var(--fill-0, #878787)"/>
<path d="M10.875 87H7.25V90.625H10.875V87Z" fill="var(--fill-0, #878787)"/>
<path d="M7.25 43.5H3.625V47.125H7.25V43.5Z" fill="#9E9E9E"/>
<path d="M10.875 25.375H7.25V29H10.875V25.375Z" fill="var(--fill-0, #878787)"/>
<path d="M14.5 25.375H10.875V29H14.5V25.375Z" fill="#9E9E9E"/>
<path d="M7.25 25.375H3.625V29H7.25V25.375Z" fill="#9E9E9E"/>
<path d="M10.875 29H7.25V32.625H10.875V29Z" fill="#9E9E9E"/>
<path d="M10.875 21.75H7.25V25.375H10.875V21.75Z" fill="#9E9E9E"/>
<path d="M18.125 25.375H14.5V29H18.125V25.375Z" fill="var(--fill-0, #878787)"/>
<path d="M14.5 29H10.875V32.625H14.5V29Z" fill="var(--fill-0, #878787)"/>
<path d="M14.5 21.75H10.875V25.375H14.5V21.75Z" fill="var(--fill-0, #878787)"/>
<path d="M7.25 29H3.625V32.625H7.25V29Z" fill="var(--fill-0, #878787)"/>
<path d="M7.25 21.75H3.625V25.375H7.25V21.75Z" fill="var(--fill-0, #878787)"/>
<path d="M10.875 32.625H7.25V36.25H10.875V32.625Z" fill="var(--fill-0, #878787)"/>
<path d="M10.875 18.125H7.25V21.75H10.875V18.125Z" fill="var(--fill-0, #878787)"/>
<path d="M18.125 21.75H14.5V25.375H18.125V21.75Z" fill="#9E9E9E"/>
<path d="M7.25 32.625H3.625V36.25H7.25V32.625Z" fill="#9E9E9E"/>
<path d="M7.25 18.125H3.625V21.75H7.25V18.125Z" fill="#9E9E9E"/>
<path d="M10.875 14.5H7.25V18.125H10.875V14.5Z" fill="#9E9E9E"/>
<path d="M21.75 21.75H18.125V25.375H21.75V21.75Z" fill="var(--fill-0, #878787)"/>
<path d="M7.25 36.25H3.625V39.875H7.25V36.25Z" fill="var(--fill-0, #878787)"/>
<path d="M14.5 14.5H10.875V18.125H14.5V14.5Z" fill="var(--fill-0, #878787)"/>
<path d="M39.875 3.625V0H36.25V3.625V7.25V10.875H39.875V7.25V3.625Z" fill="black"/>
<path d="M32.625 3.625H29V7.25V10.875H32.625V7.25V3.625Z" fill="black"/>
<path fill-rule="evenodd" clip-rule="evenodd" d="M25.375 0V3.625V7.25V10.875H21.75V14.5H18.125V18.125H21.75H25.375H29H32.625H36.25H39.875H43.5H47.125V14.5H43.5H39.875V10.875H36.25V7.25V3.625V0H32.625H29H25.375ZM29 3.625H32.625V7.25V10.875H29V7.25V3.625Z" fill="white"/>
<path d="M25.375 0H21.75V3.625V7.25V10.875H25.375V7.25V3.625V0Z" fill="black"/>
<path d="M3.625 18.125H7.25V14.5H10.875H14.5V18.125H10.875V21.75H14.5H18.125H21.75V25.375H25.375V21.75H29H32.625H36.25H39.875H43.5H47.125V25.375H50.75V21.75H54.375V18.125H50.75V14.5H54.375H58V18.125H61.625V21.75V25.375V29V32.625V36.25V39.875V43.5V47.125V50.75V54.375V58V61.625V65.25V68.875V72.5V76.125V79.75V83.375V87H58V90.625H54.375H50.75H47.125H43.5H39.875H36.25H32.625H29H25.375H21.75H18.125H14.5H10.875H7.25V87H3.625V83.375V79.75V76.125V72.5V68.875V65.25V61.625V58V54.375V50.75V47.125V43.5V39.875V36.25V32.625V29V25.375V21.75V18.125ZM0 90.625H3.625V94.25H7.25H10.875H14.5H18.125H21.75H25.375H29H32.625H36.25H39.875H43.5H47.125H50.75H54.375H58H61.625V90.625H65.25V87V83.375V79.75V76.125V72.5V68.875V65.25V61.625V58V54.375V50.75V47.125V43.5V39.875V36.25V32.625V29V25.375V21.75V18.125V14.5H61.625V10.875H58H54.375H50.75H47.125H43.5H39.875V14.5H43.5H47.125V18.125H43.5H39.875H36.25H32.625H29H25.375H21.75H18.125V14.5H21.75V10.875H18.125H14.5H10.875H7.25H3.625V14.5H0V18.125V21.75V25.375V29V32.625V36.25V39.875V43.5V47.125V50.75V54.375V58V61.625V65.25V68.875V72.5V76.125V79.75V83.375V87V90.625Z" fill="black"/>
<path d="M50.75 29V25.375H47.125V21.75H43.5H39.875H36.25H32.625H29H25.375V25.375H21.75V29H18.125V32.625H14.5V36.25H10.875V39.875H7.25V43.5H10.875V47.125H14.5V50.75H18.125V54.375H21.75V58H25.375V61.625H29V58H32.625V54.375H36.25V50.75H39.875V47.125H43.5V43.5H47.125V39.875H50.75V36.25H54.375V32.625V29H50.75Z" fill="white"/>
</g>
</svg>
