<svg viewBox="0 0 79.75 101.5" fill="none" xmlns="http://www.w3.org/2000/svg">
<g id="Vector">
<path d="M65.25 7.25H61.625V10.875H65.25V7.25Z" fill="black"/>
<path d="M68.875 10.875H65.25V14.5H68.875V10.875Z" fill="black"/>
<path d="M72.5 14.5H68.875V18.125H72.5V14.5Z" fill="black"/>
<path d="M14.5 54.375H18.125H21.75H25.375H29H32.625H36.25H39.875H43.5H47.125H50.75H54.375V58H50.75H47.125H43.5H39.875H36.25H32.625H29H25.375H21.75H18.125H14.5V54.375Z" fill="black"/>
<path d="M14.5 68.875H18.125H21.75H25.375H29H32.625H36.25H39.875H43.5H47.125H50.75H54.375H58H61.625H65.25H68.875V72.5H65.25H61.625H58H54.375H50.75H47.125H43.5H39.875H36.25H32.625H29H25.375H21.75H18.125H14.5V68.875Z" fill="black"/>
<path fill-rule="evenodd" clip-rule="evenodd" d="M68.875 68.875V72.5H65.25H61.625H58H54.375H50.75H47.125H43.5H39.875H36.25H32.625H29H25.375H21.75H18.125H14.5V68.875H18.125H21.75H25.375H29H32.625H36.25H39.875H43.5H47.125H50.75H54.375H58H61.625H65.25H68.875Z" fill="white"/>
<path fill-rule="evenodd" clip-rule="evenodd" d="M18.125 68.875H14.5V72.5H18.125H21.75H25.375H29H32.625H36.25H39.875H43.5H47.125H50.75H54.375H58H61.625H65.25H68.875V68.875H65.25H61.625H58H54.375H50.75H47.125H43.5H39.875H36.25H32.625H29H25.375H21.75H18.125Z" fill="white"/>
<path fill-rule="evenodd" clip-rule="evenodd" d="M14.5 68.875H18.125H21.75H25.375H29H32.625H36.25H39.875H43.5H47.125H50.75H54.375H58H61.625H65.25H68.875V72.5H65.25H61.625H58H54.375H50.75H47.125H43.5H39.875H36.25H32.625H29H25.375H21.75H18.125H14.5V68.875Z" fill="white"/>
<path fill-rule="evenodd" clip-rule="evenodd" d="M14.5 68.875H18.125H21.75H25.375H29H32.625H36.25H39.875H43.5H47.125H50.75H54.375H58H61.625H65.25H68.875V72.5H65.25H61.625H58H54.375H50.75H47.125H43.5H39.875H36.25H32.625H29H25.375H21.75H18.125H14.5V68.875Z" fill="white"/>
<path fill-rule="evenodd" clip-rule="evenodd" d="M14.5 54.375H18.125H21.75H25.375H29H32.625H36.25H39.875H43.5H47.125H50.75H54.375V58H50.75H47.125H43.5H39.875H36.25H32.625H29H25.375H21.75H18.125H14.5V54.375ZM14.5 68.875H18.125H21.75H25.375H29H32.625H36.25H39.875H43.5H47.125H50.75H54.375H58H61.625H65.25H68.875V72.5H65.25H61.625H58H54.375H50.75H47.125H43.5H39.875H36.25H32.625H29H25.375H21.75H18.125H14.5V68.875Z" fill="white"/>
<path fill-rule="evenodd" clip-rule="evenodd" d="M14.5 54.375H18.125H21.75H25.375H29H32.625H36.25H39.875H43.5H47.125H50.75H54.375V58H50.75H47.125H43.5H39.875H36.25H32.625H29H25.375H21.75H18.125H14.5V54.375ZM14.5 68.875H18.125H21.75H25.375H29H32.625H36.25H39.875H43.5H47.125H50.75H54.375H58H61.625H65.25H68.875V72.5H65.25H61.625H58H54.375H50.75H47.125H43.5H39.875H36.25H32.625H29H25.375H21.75H18.125H14.5V68.875Z" fill="white"/>
<path fill-rule="evenodd" clip-rule="evenodd" d="M18.125 54.375H14.5V58H18.125H21.75H25.375H29H32.625H36.25H39.875H43.5H47.125H50.75H54.375V54.375H50.75H47.125H43.5H39.875H36.25H32.625H29H25.375H21.75H18.125ZM18.125 68.875H14.5V72.5H18.125H21.75H25.375H29H32.625H36.25H39.875H43.5H47.125H50.75H54.375H58H61.625H65.25H68.875V68.875H65.25H61.625H58H54.375H50.75H47.125H43.5H39.875H36.25H32.625H29H25.375H21.75H18.125Z" fill="white"/>
<path fill-rule="evenodd" clip-rule="evenodd" d="M50.75 90.625H54.375H58V94.25H54.375H50.75H47.125H43.5H39.875H36.25H32.625H29H25.375H21.75H18.125H14.5V90.625H18.125H21.75H25.375H29H32.625H36.25H39.875H43.5H47.125H50.75Z" fill="white"/>
<path fill-rule="evenodd" clip-rule="evenodd" d="M14.5 83.375H18.125H21.75H25.375H29H32.625H36.25H39.875H43.5H47.125H50.75H54.375H58H61.625H65.25V87H61.625H58H54.375H50.75H47.125H43.5H39.875H36.25H32.625H29H25.375H21.75H18.125H14.5V83.375Z" fill="white"/>
<path fill-rule="evenodd" clip-rule="evenodd" d="M14.5 76.125H18.125H21.75H25.375H29H32.625H36.25H39.875H43.5H47.125H50.75H54.375V79.75H50.75H47.125H43.5H39.875H36.25H32.625H29H25.375H21.75H18.125H14.5V76.125Z" fill="white"/>
<path d="M14.5 61.625H18.125H21.75H25.375H29H32.625H36.25H39.875H43.5H47.125H50.75H54.375H58H61.625H65.25V65.25H61.625H58H54.375H50.75H47.125H43.5H39.875H36.25H32.625H29H25.375H21.75H18.125H14.5V61.625Z" fill="black"/>
<path d="M14.5 47.125H18.125H21.75H25.375H29H32.625H36.25H39.875H43.5H47.125H50.75H54.375H58H61.625H65.25H68.875V50.75H65.25H61.625H58H54.375H50.75H47.125H43.5H39.875H36.25H32.625H29H25.375H21.75H18.125H14.5V47.125Z" fill="black"/>
<path d="M14.5 39.875H18.125H21.75H25.375H29H32.625H36.25H39.875H43.5H47.125H50.75H54.375H58V43.5H54.375H50.75H47.125H43.5H39.875H36.25H32.625H29H25.375H21.75H18.125H14.5V39.875Z" fill="black"/>
<path d="M14.5 32.625H18.125H21.75H25.375H29H32.625H36.25H39.875H43.5H47.125H50.75H54.375H58H61.625H65.25V36.25H61.625H58H54.375H50.75H47.125H43.5H39.875H36.25H32.625H29H25.375H21.75H18.125H14.5V32.625Z" fill="black"/>
<path fill-rule="evenodd" clip-rule="evenodd" d="M18.125 54.375H14.5V58H18.125H21.75H25.375H29H32.625H36.25H39.875H43.5H47.125H50.75H54.375V54.375H50.75H47.125H43.5H39.875H36.25H32.625H29H25.375H21.75H18.125ZM18.125 68.875H14.5V72.5H18.125H21.75H25.375H29H32.625H36.25H39.875H43.5H47.125H50.75H54.375H58H61.625H65.25H68.875V68.875H65.25H61.625H58H54.375H50.75H47.125H43.5H39.875H36.25H32.625H29H25.375H21.75H18.125ZM54.375 90.625H50.75H47.125H43.5H39.875H36.25H32.625H29H25.375H21.75H18.125H14.5V94.25H18.125H21.75H25.375H29H32.625H36.25H39.875H43.5H47.125H50.75H54.375H58V90.625H54.375ZM18.125 83.375H14.5V87H18.125H21.75H25.375H29H32.625H36.25H39.875H43.5H47.125H50.75H54.375H58H61.625H65.25V83.375H61.625H58H54.375H50.75H47.125H43.5H39.875H36.25H32.625H29H25.375H21.75H18.125ZM18.125 76.125H14.5V79.75H18.125H21.75H25.375H29H32.625H36.25H39.875H43.5H47.125H50.75H54.375V76.125H50.75H47.125H43.5H39.875H36.25H32.625H29H25.375H21.75H18.125ZM18.125 61.625H14.5V65.25H18.125H21.75H25.375H29H32.625H36.25H39.875H43.5H47.125H50.75H54.375H58H61.625H65.25V61.625H61.625H58H54.375H50.75H47.125H43.5H39.875H36.25H32.625H29H25.375H21.75H18.125ZM18.125 47.125H14.5V50.75H18.125H21.75H25.375H29H32.625H36.25H39.875H43.5H47.125H50.75H54.375H58H61.625H65.25H68.875V47.125H65.25H61.625H58H54.375H50.75H47.125H43.5H39.875H36.25H32.625H29H25.375H21.75H18.125ZM18.125 39.875H14.5V43.5H18.125H21.75H25.375H29H32.625H36.25H39.875H43.5H47.125H50.75H54.375H58V39.875H54.375H50.75H47.125H43.5H39.875H36.25H32.625H29H25.375H21.75H18.125ZM18.125 32.625H14.5V36.25H18.125H21.75H25.375H29H32.625H36.25H39.875H43.5H47.125H50.75H54.375H58H61.625H65.25V32.625H61.625H58H54.375H50.75H47.125H43.5H39.875H36.25H32.625H29H25.375H21.75H18.125Z" fill="white"/>
<path fill-rule="evenodd" clip-rule="evenodd" d="M18.125 54.375H14.5V58H18.125H21.75H25.375H29H32.625H36.25H39.875H43.5H47.125H50.75H54.375V54.375H50.75H47.125H43.5H39.875H36.25H32.625H29H25.375H21.75H18.125ZM18.125 68.875H14.5V72.5H18.125H21.75H25.375H29H32.625H36.25H39.875H43.5H47.125H50.75H54.375H58H61.625H65.25H68.875V68.875H65.25H61.625H58H54.375H50.75H47.125H43.5H39.875H36.25H32.625H29H25.375H21.75H18.125ZM54.375 90.625H50.75H47.125H43.5H39.875H36.25H32.625H29H25.375H21.75H18.125H14.5V94.25H18.125H21.75H25.375H29H32.625H36.25H39.875H43.5H47.125H50.75H54.375H58V90.625H54.375ZM18.125 83.375H14.5V87H18.125H21.75H25.375H29H32.625H36.25H39.875H43.5H47.125H50.75H54.375H58H61.625H65.25V83.375H61.625H58H54.375H50.75H47.125H43.5H39.875H36.25H32.625H29H25.375H21.75H18.125ZM18.125 76.125H14.5V79.75H18.125H21.75H25.375H29H32.625H36.25H39.875H43.5H47.125H50.75H54.375V76.125H50.75H47.125H43.5H39.875H36.25H32.625H29H25.375H21.75H18.125ZM18.125 61.625H14.5V65.25H18.125H21.75H25.375H29H32.625H36.25H39.875H43.5H47.125H50.75H54.375H58H61.625H65.25V61.625H61.625H58H54.375H50.75H47.125H43.5H39.875H36.25H32.625H29H25.375H21.75H18.125ZM18.125 47.125H14.5V50.75H18.125H21.75H25.375H29H32.625H36.25H39.875H43.5H47.125H50.75H54.375H58H61.625H65.25H68.875V47.125H65.25H61.625H58H54.375H50.75H47.125H43.5H39.875H36.25H32.625H29H25.375H21.75H18.125ZM18.125 39.875H14.5V43.5H18.125H21.75H25.375H29H32.625H36.25H39.875H43.5H47.125H50.75H54.375H58V39.875H54.375H50.75H47.125H43.5H39.875H36.25H32.625H29H25.375H21.75H18.125ZM18.125 32.625H14.5V36.25H18.125H21.75H25.375H29H32.625H36.25H39.875H43.5H47.125H50.75H54.375H58H61.625H65.25V32.625H61.625H58H54.375H50.75H47.125H43.5H39.875H36.25H32.625H29H25.375H21.75H18.125Z" fill="black"/>
<path fill-rule="evenodd" clip-rule="evenodd" d="M18.125 54.375H14.5V58H18.125H21.75H25.375H29H32.625H36.25H39.875H43.5H47.125H50.75H54.375V54.375H50.75H47.125H43.5H39.875H36.25H32.625H29H25.375H21.75H18.125ZM18.125 68.875H14.5V72.5H18.125H21.75H25.375H29H32.625H36.25H39.875H43.5H47.125H50.75H54.375H58H61.625H65.25H68.875V68.875H65.25H61.625H58H54.375H50.75H47.125H43.5H39.875H36.25H32.625H29H25.375H21.75H18.125ZM54.375 90.625H50.75H47.125H43.5H39.875H36.25H32.625H29H25.375H21.75H18.125H14.5V94.25H18.125H21.75H25.375H29H32.625H36.25H39.875H43.5H47.125H50.75H54.375H58V90.625H54.375ZM18.125 83.375H14.5V87H18.125H21.75H25.375H29H32.625H36.25H39.875H43.5H47.125H50.75H54.375H58H61.625H65.25V83.375H61.625H58H54.375H50.75H47.125H43.5H39.875H36.25H32.625H29H25.375H21.75H18.125ZM18.125 76.125H14.5V79.75H18.125H21.75H25.375H29H32.625H36.25H39.875H43.5H47.125H50.75H54.375V76.125H50.75H47.125H43.5H39.875H36.25H32.625H29H25.375H21.75H18.125ZM18.125 61.625H14.5V65.25H18.125H21.75H25.375H29H32.625H36.25H39.875H43.5H47.125H50.75H54.375H58H61.625H65.25V61.625H61.625H58H54.375H50.75H47.125H43.5H39.875H36.25H32.625H29H25.375H21.75H18.125ZM18.125 47.125H14.5V50.75H18.125H21.75H25.375H29H32.625H36.25H39.875H43.5H47.125H50.75H54.375H58H61.625H65.25H68.875V47.125H65.25H61.625H58H54.375H50.75H47.125H43.5H39.875H36.25H32.625H29H25.375H21.75H18.125ZM18.125 39.875H14.5V43.5H18.125H21.75H25.375H29H32.625H36.25H39.875H43.5H47.125H50.75H54.375H58V39.875H54.375H50.75H47.125H43.5H39.875H36.25H32.625H29H25.375H21.75H18.125ZM18.125 32.625H14.5V36.25H18.125H21.75H25.375H29H32.625H36.25H39.875H43.5H47.125H50.75H54.375H58H61.625H65.25V32.625H61.625H58H54.375H50.75H47.125H43.5H39.875H36.25H32.625H29H25.375H21.75H18.125Z" fill="black"/>
<path fill-rule="evenodd" clip-rule="evenodd" d="M18.125 54.375H14.5V58H18.125H21.75H25.375H29H32.625H36.25H39.875H43.5H47.125H50.75H54.375V54.375H50.75H47.125H43.5H39.875H36.25H32.625H29H25.375H21.75H18.125ZM18.125 68.875H14.5V72.5H18.125H21.75H25.375H29H32.625H36.25H39.875H43.5H47.125H50.75H54.375H58H61.625H65.25H68.875V68.875H65.25H61.625H58H54.375H50.75H47.125H43.5H39.875H36.25H32.625H29H25.375H21.75H18.125ZM54.375 90.625H50.75H47.125H43.5H39.875H36.25H32.625H29H25.375H21.75H18.125H14.5V94.25H18.125H21.75H25.375H29H32.625H36.25H39.875H43.5H47.125H50.75H54.375H58V90.625H54.375ZM18.125 83.375H14.5V87H18.125H21.75H25.375H29H32.625H36.25H39.875H43.5H47.125H50.75H54.375H58H61.625H65.25V83.375H61.625H58H54.375H50.75H47.125H43.5H39.875H36.25H32.625H29H25.375H21.75H18.125ZM18.125 76.125H14.5V79.75H18.125H21.75H25.375H29H32.625H36.25H39.875H43.5H47.125H50.75H54.375V76.125H50.75H47.125H43.5H39.875H36.25H32.625H29H25.375H21.75H18.125ZM18.125 61.625H14.5V65.25H18.125H21.75H25.375H29H32.625H36.25H39.875H43.5H47.125H50.75H54.375H58H61.625H65.25V61.625H61.625H58H54.375H50.75H47.125H43.5H39.875H36.25H32.625H29H25.375H21.75H18.125ZM18.125 47.125H14.5V50.75H18.125H21.75H25.375H29H32.625H36.25H39.875H43.5H47.125H50.75H54.375H58H61.625H65.25H68.875V47.125H65.25H61.625H58H54.375H50.75H47.125H43.5H39.875H36.25H32.625H29H25.375H21.75H18.125ZM18.125 39.875H14.5V43.5H18.125H21.75H25.375H29H32.625H36.25H39.875H43.5H47.125H50.75H54.375H58V39.875H54.375H50.75H47.125H43.5H39.875H36.25H32.625H29H25.375H21.75H18.125ZM18.125 32.625H14.5V36.25H18.125H21.75H25.375H29H32.625H36.25H39.875H43.5H47.125H50.75H54.375H58H61.625H65.25V32.625H61.625H58H54.375H50.75H47.125H43.5H39.875H36.25H32.625H29H25.375H21.75H18.125Z" fill="black"/>
<path fill-rule="evenodd" clip-rule="evenodd" d="M18.125 54.375H14.5V58H18.125H21.75H25.375H29H32.625H36.25H39.875H43.5H47.125H50.75H54.375V54.375H50.75H47.125H43.5H39.875H36.25H32.625H29H25.375H21.75H18.125ZM18.125 68.875H14.5V72.5H18.125H21.75H25.375H29H32.625H36.25H39.875H43.5H47.125H50.75H54.375H58H61.625H65.25H68.875V68.875H65.25H61.625H58H54.375H50.75H47.125H43.5H39.875H36.25H32.625H29H25.375H21.75H18.125ZM54.375 90.625H50.75H47.125H43.5H39.875H36.25H32.625H29H25.375H21.75H18.125H14.5V94.25H18.125H21.75H25.375H29H32.625H36.25H39.875H43.5H47.125H50.75H54.375H58V90.625H54.375ZM18.125 83.375H14.5V87H18.125H21.75H25.375H29H32.625H36.25H39.875H43.5H47.125H50.75H54.375H58H61.625H65.25V83.375H61.625H58H54.375H50.75H47.125H43.5H39.875H36.25H32.625H29H25.375H21.75H18.125ZM18.125 76.125H14.5V79.75H18.125H21.75H25.375H29H32.625H36.25H39.875H43.5H47.125H50.75H54.375V76.125H50.75H47.125H43.5H39.875H36.25H32.625H29H25.375H21.75H18.125ZM18.125 61.625H14.5V65.25H18.125H21.75H25.375H29H32.625H36.25H39.875H43.5H47.125H50.75H54.375H58H61.625H65.25V61.625H61.625H58H54.375H50.75H47.125H43.5H39.875H36.25H32.625H29H25.375H21.75H18.125ZM18.125 47.125H14.5V50.75H18.125H21.75H25.375H29H32.625H36.25H39.875H43.5H47.125H50.75H54.375H58H61.625H65.25H68.875V47.125H65.25H61.625H58H54.375H50.75H47.125H43.5H39.875H36.25H32.625H29H25.375H21.75H18.125ZM18.125 39.875H14.5V43.5H18.125H21.75H25.375H29H32.625H36.25H39.875H43.5H47.125H50.75H54.375H58V39.875H54.375H50.75H47.125H43.5H39.875H36.25H32.625H29H25.375H21.75H18.125ZM18.125 32.625H14.5V36.25H18.125H21.75H25.375H29H32.625H36.25H39.875H43.5H47.125H50.75H54.375H58H61.625H65.25V32.625H61.625H58H54.375H50.75H47.125H43.5H39.875H36.25H32.625H29H25.375H21.75H18.125Z" fill="black"/>
<path fill-rule="evenodd" clip-rule="evenodd" d="M18.125 54.375H14.5V58H18.125H21.75H25.375H29H32.625H36.25H39.875H43.5H47.125H50.75H54.375V54.375H50.75H47.125H43.5H39.875H36.25H32.625H29H25.375H21.75H18.125ZM18.125 68.875H14.5V72.5H18.125H21.75H25.375H29H32.625H36.25H39.875H43.5H47.125H50.75H54.375H58H61.625H65.25H68.875V68.875H65.25H61.625H58H54.375H50.75H47.125H43.5H39.875H36.25H32.625H29H25.375H21.75H18.125ZM54.375 90.625H50.75H47.125H43.5H39.875H36.25H32.625H29H25.375H21.75H18.125H14.5V94.25H18.125H21.75H25.375H29H32.625H36.25H39.875H43.5H47.125H50.75H54.375H58V90.625H54.375ZM18.125 83.375H14.5V87H18.125H21.75H25.375H29H32.625H36.25H39.875H43.5H47.125H50.75H54.375H58H61.625H65.25V83.375H61.625H58H54.375H50.75H47.125H43.5H39.875H36.25H32.625H29H25.375H21.75H18.125ZM18.125 76.125H14.5V79.75H18.125H21.75H25.375H29H32.625H36.25H39.875H43.5H47.125H50.75H54.375V76.125H50.75H47.125H43.5H39.875H36.25H32.625H29H25.375H21.75H18.125ZM18.125 61.625H14.5V65.25H18.125H21.75H25.375H29H32.625H36.25H39.875H43.5H47.125H50.75H54.375H58H61.625H65.25V61.625H61.625H58H54.375H50.75H47.125H43.5H39.875H36.25H32.625H29H25.375H21.75H18.125ZM18.125 47.125H14.5V50.75H18.125H21.75H25.375H29H32.625H36.25H39.875H43.5H47.125H50.75H54.375H58H61.625H65.25H68.875V47.125H65.25H61.625H58H54.375H50.75H47.125H43.5H39.875H36.25H32.625H29H25.375H21.75H18.125ZM18.125 39.875H14.5V43.5H18.125H21.75H25.375H29H32.625H36.25H39.875H43.5H47.125H50.75H54.375H58V39.875H54.375H50.75H47.125H43.5H39.875H36.25H32.625H29H25.375H21.75H18.125ZM18.125 32.625H14.5V36.25H18.125H21.75H25.375H29H32.625H36.25H39.875H43.5H47.125H50.75H54.375H58H61.625H65.25V32.625H61.625H58H54.375H50.75H47.125H43.5H39.875H36.25H32.625H29H25.375H21.75H18.125Z" fill="black"/>
<path fill-rule="evenodd" clip-rule="evenodd" d="M68.875 21.75H72.5V18.125H76.125V21.75H79.75V25.375V29V32.625V36.25V39.875V43.5V47.125V50.75V54.375V58V61.625V65.25V68.875V72.5V76.125V79.75V83.375V87V90.625V94.25V97.875V101.5H76.125H72.5H68.875H65.25H61.625H58H54.375H50.75H47.125H43.5H39.875H36.25H32.625H29H25.375H21.75H18.125H14.5H10.875H7.25H3.625H0V97.875V94.25V90.625V87V83.375V79.75V76.125V72.5V68.875V65.25V61.625V58V54.375V50.75V47.125V43.5V39.875V36.25V32.625V29V25.375V21.75V18.125V14.5V10.875V7.25V3.625V0H3.625H7.25H10.875H14.5H18.125H21.75H25.375H29H32.625H36.25H39.875H43.5H47.125H50.75H54.375H58V3.625H61.625V7.25H58V10.875V14.5V18.125V21.75H61.625H65.25H68.875ZM7.25 3.625H3.625V7.25V10.875V14.5V18.125V21.75H7.25H10.875H14.5H18.125H21.75H25.375H29H32.625H36.25H39.875H43.5H47.125H50.75H54.375V18.125V14.5V10.875V7.25V3.625H50.75H47.125H43.5H39.875H36.25H32.625H29H25.375H21.75H18.125H14.5H10.875H7.25ZM72.5 25.375H76.125V29V32.625V36.25V39.875V43.5V47.125V50.75V54.375V58V61.625V65.25V68.875V72.5V76.125V79.75V83.375V87V90.625V94.25V97.875H72.5H68.875H65.25H61.625H58H54.375H50.75H47.125H43.5H39.875H36.25H32.625H29H25.375H21.75H18.125H14.5H10.875H7.25H3.625V94.25V90.625V87V83.375V79.75V76.125V72.5V68.875V65.25V61.625V58V54.375V50.75V47.125V43.5V39.875V36.25V32.625V29V25.375H7.25H10.875H14.5H18.125H21.75H25.375H29H32.625H36.25H39.875H43.5H47.125H50.75H54.375H58H61.625H65.25H68.875H72.5ZM18.125 54.375H14.5V58H18.125H21.75H25.375H29H32.625H36.25H39.875H43.5H47.125H50.75H54.375V54.375H50.75H47.125H43.5H39.875H36.25H32.625H29H25.375H21.75H18.125ZM18.125 68.875H14.5V72.5H18.125H21.75H25.375H29H32.625H36.25H39.875H43.5H47.125H50.75H54.375H58H61.625H65.25H68.875V68.875H65.25H61.625H58H54.375H50.75H47.125H43.5H39.875H36.25H32.625H29H25.375H21.75H18.125ZM54.375 90.625H50.75H47.125H43.5H39.875H36.25H32.625H29H25.375H21.75H18.125H14.5V94.25H18.125H21.75H25.375H29H32.625H36.25H39.875H43.5H47.125H50.75H54.375H58V90.625H54.375ZM18.125 83.375H14.5V87H18.125H21.75H25.375H29H32.625H36.25H39.875H43.5H47.125H50.75H54.375H58H61.625H65.25V83.375H61.625H58H54.375H50.75H47.125H43.5H39.875H36.25H32.625H29H25.375H21.75H18.125ZM18.125 76.125H14.5V79.75H18.125H21.75H25.375H29H32.625H36.25H39.875H43.5H47.125H50.75H54.375V76.125H50.75H47.125H43.5H39.875H36.25H32.625H29H25.375H21.75H18.125ZM18.125 61.625H14.5V65.25H18.125H21.75H25.375H29H32.625H36.25H39.875H43.5H47.125H50.75H54.375H58H61.625H65.25V61.625H61.625H58H54.375H50.75H47.125H43.5H39.875H36.25H32.625H29H25.375H21.75H18.125ZM18.125 47.125H14.5V50.75H18.125H21.75H25.375H29H32.625H36.25H39.875H43.5H47.125H50.75H54.375H58H61.625H65.25H68.875V47.125H65.25H61.625H58H54.375H50.75H47.125H43.5H39.875H36.25H32.625H29H25.375H21.75H18.125ZM18.125 39.875H14.5V43.5H18.125H21.75H25.375H29H32.625H36.25H39.875H43.5H47.125H50.75H54.375H58V39.875H54.375H50.75H47.125H43.5H39.875H36.25H32.625H29H25.375H21.75H18.125ZM18.125 32.625H14.5V36.25H18.125H21.75H25.375H29H32.625H36.25H39.875H43.5H47.125H50.75H54.375H58H61.625H65.25V32.625H61.625H58H54.375H50.75H47.125H43.5H39.875H36.25H32.625H29H25.375H21.75H18.125Z" fill="black"/>
<path d="M61.625 7.25V10.875H65.25V14.5H68.875V18.125H72.5V21.75H68.875H65.25H61.625H58V18.125V14.5V10.875V7.25H61.625Z" fill="white"/>
<path d="M47.125 14.5H50.75V18.125H47.125H43.5H39.875H36.25H32.625H29H25.375H21.75V14.5H25.375H29H32.625H36.25H39.875H43.5H47.125Z" fill="#656565"/>
<path fill-rule="evenodd" clip-rule="evenodd" d="M32.625 7.25H29H25.375H21.75V10.875H25.375H29H32.625H36.25H39.875H43.5H47.125H50.75V7.25H47.125H43.5H39.875H36.25H32.625Z" fill="#656565"/>
<path fill-rule="evenodd" clip-rule="evenodd" d="M7.25 3.625H3.625V7.25V10.875V14.5V18.125V21.75H7.25H10.875H14.5H18.125H21.75H25.375H29H32.625H36.25H39.875H43.5H47.125H50.75H54.375V18.125V14.5V10.875V7.25V3.625H50.75H47.125H43.5H39.875H36.25H32.625H29H25.375H21.75H18.125H14.5H10.875H7.25ZM10.875 7.25H7.25V10.875V14.5V18.125H10.875H14.5H18.125V14.5V10.875V7.25H14.5H10.875ZM29 7.25H32.625H36.25H39.875H43.5H47.125H50.75V10.875H47.125H43.5H39.875H36.25H32.625H29H25.375H21.75V7.25H25.375H29ZM50.75 14.5H47.125H43.5H39.875H36.25H32.625H29H25.375H21.75V18.125H25.375H29H32.625H36.25H39.875H43.5H47.125H50.75V14.5Z" fill="var(--fill-0, #CFCFCF)"/>
<path d="M7.25 7.25H10.875H14.5H18.125V10.875V14.5V18.125H14.5H10.875H7.25V14.5V10.875V7.25ZM14.5 10.875H10.875V14.5H14.5V10.875Z" fill="black"/>
<path d="M10.875 10.875H14.5V14.5H10.875V10.875Z" fill="var(--fill-0, #CFCFCF)"/>
<path d="M76.125 25.375H72.5H68.875H65.25H61.625H58H54.375H50.75H47.125H43.5H39.875H36.25H32.625H29H25.375H21.75H18.125H14.5H10.875H7.25H3.625V29V32.625V36.25V39.875V43.5V47.125V50.75V54.375V58V61.625V65.25V68.875V72.5V76.125V79.75V83.375V87V90.625V94.25V97.875H7.25H10.875H14.5H18.125H21.75H25.375H29H32.625H36.25H39.875H43.5H47.125H50.75H54.375H58H61.625H65.25H68.875H72.5H76.125V94.25V90.625V87V83.375V79.75V76.125V72.5V68.875V65.25V61.625V58V54.375V50.75V47.125V43.5V39.875V36.25V32.625V29V25.375ZM14.5 54.375H18.125H21.75H25.375H29H32.625H36.25H39.875H43.5H47.125H50.75H54.375V58H50.75H47.125H43.5H39.875H36.25H32.625H29H25.375H21.75H18.125H14.5V54.375ZM14.5 68.875H18.125H21.75H25.375H29H32.625H36.25H39.875H43.5H47.125H50.75H54.375H58H61.625H65.25H68.875V72.5H65.25H61.625H58H54.375H50.75H47.125H43.5H39.875H36.25H32.625H29H25.375H21.75H18.125H14.5V68.875ZM50.75 90.625H54.375H58V94.25H54.375H50.75H47.125H43.5H39.875H36.25H32.625H29H25.375H21.75H18.125H14.5V90.625H18.125H21.75H25.375H29H32.625H36.25H39.875H43.5H47.125H50.75ZM14.5 83.375H18.125H21.75H25.375H29H32.625H36.25H39.875H43.5H47.125H50.75H54.375H58H61.625H65.25V87H61.625H58H54.375H50.75H47.125H43.5H39.875H36.25H32.625H29H25.375H21.75H18.125H14.5V83.375ZM14.5 76.125H18.125H21.75H25.375H29H32.625H36.25H39.875H43.5H47.125H50.75H54.375V79.75H50.75H47.125H43.5H39.875H36.25H32.625H29H25.375H21.75H18.125H14.5V76.125ZM14.5 61.625H18.125H21.75H25.375H29H32.625H36.25H39.875H43.5H47.125H50.75H54.375H58H61.625H65.25V65.25H61.625H58H54.375H50.75H47.125H43.5H39.875H36.25H32.625H29H25.375H21.75H18.125H14.5V61.625ZM14.5 47.125H18.125H21.75H25.375H29H32.625H36.25H39.875H43.5H47.125H50.75H54.375H58H61.625H65.25H68.875V50.75H65.25H61.625H58H54.375H50.75H47.125H43.5H39.875H36.25H32.625H29H25.375H21.75H18.125H14.5V47.125ZM14.5 39.875H18.125H21.75H25.375H29H32.625H36.25H39.875H43.5H47.125H50.75H54.375H58V43.5H54.375H50.75H47.125H43.5H39.875H36.25H32.625H29H25.375H21.75H18.125H14.5V39.875ZM14.5 32.625H18.125H21.75H25.375H29H32.625H36.25H39.875H43.5H47.125H50.75H54.375H58H61.625H65.25V36.25H61.625H58H54.375H50.75H47.125H43.5H39.875H36.25H32.625H29H25.375H21.75H18.125H14.5V32.625Z" fill="white"/>
</g>
</svg>
