<svg viewBox="0 0 79.75 101.5" fill="none" xmlns="http://www.w3.org/2000/svg">
<g id="Vector">
<path d="M65.25 7.25H61.625V10.875H65.25V7.25Z" fill="black"/>
<path d="M14.5 10.875H10.875V14.5H14.5V10.875Z" fill="#CFCFCF"/>
<path d="M68.875 10.875H65.25V14.5H68.875V10.875Z" fill="black"/>
<path d="M72.5 14.5H68.875V18.125H72.5V14.5Z" fill="black"/>
<path d="M14.5 32.625H10.875V36.25H14.5V32.625Z" fill="black"/>
<path d="M36.25 32.625H32.625V36.25H36.25V32.625Z" fill="black"/>
<path d="M50.75 32.625H47.125V36.25H50.75V32.625Z" fill="black"/>
<path d="M68.875 32.625H65.25V36.25H68.875V32.625Z" fill="black"/>
<path d="M58 47.125H54.375V50.75H58V47.125Z" fill="black"/>
<path d="M14.5 50.75H10.875V54.375H14.5V50.75Z" fill="black"/>
<path d="M36.25 50.75H32.625V54.375H36.25V50.75Z" fill="black"/>
<path d="M50.75 50.75H47.125V54.375H50.75V50.75Z" fill="black"/>
<path d="M58 3.625V0H54.375H50.75H47.125H43.5H39.875H36.25H32.625H29H25.375H21.75H18.125H14.5H10.875H7.25H3.625H0V3.625V7.25V10.875V14.5V18.125V21.75V25.375V29V32.625V36.25V39.875V43.5V47.125V50.75V54.375V58V61.625V65.25V68.875V72.5V76.125V79.75V83.375V87V90.625V94.25V97.875V101.5H3.625H7.25H10.875H14.5H18.125H21.75H25.375H29H32.625H36.25H39.875H43.5H47.125H50.75H54.375H58H61.625H65.25H68.875H72.5H76.125H79.75V97.875V94.25V90.625V87V83.375V79.75V76.125V72.5V68.875V65.25V61.625V58V54.375V50.75V47.125V43.5V39.875V36.25V32.625V29V25.375V21.75H76.125V18.125H72.5V21.75H68.875H65.25H61.625H58V18.125V14.5V10.875V7.25H61.625V3.625H58ZM3.625 3.625H7.25H10.875H14.5H18.125H21.75H25.375H29H32.625H36.25H39.875H43.5H47.125H50.75H54.375V7.25V10.875V14.5V18.125V21.75H50.75H47.125H43.5H39.875H36.25H32.625H29H25.375H21.75H18.125H14.5H10.875H7.25H3.625V18.125V14.5V10.875V7.25V3.625ZM76.125 29V32.625V36.25V39.875V43.5V47.125V50.75V54.375V58V61.625V65.25V68.875V72.5V76.125V79.75V83.375V87V90.625V94.25V97.875H72.5H68.875H65.25H61.625H58H54.375H50.75H47.125H43.5H39.875H36.25H32.625H29H25.375H21.75H18.125H14.5H10.875H7.25H3.625V94.25V90.625V87V83.375V79.75V76.125V72.5V68.875V65.25V61.625V58V54.375V50.75V47.125V43.5V39.875V36.25V32.625V29V25.375H7.25H10.875H14.5H18.125H21.75H25.375H29H32.625H36.25H39.875H43.5H47.125H50.75H54.375H58H61.625H65.25H68.875H72.5H76.125V29Z" fill="black"/>
<path d="M50.75 3.625H54.375V7.25V10.875V14.5V18.125V21.75H50.75H47.125H43.5H39.875H36.25H32.625H29H25.375H21.75H18.125H14.5H10.875H7.25H3.625V18.125V14.5V10.875V7.25V3.625H7.25H10.875H14.5H18.125H21.75H25.375H29H32.625H36.25H39.875H43.5H47.125H50.75ZM7.25 7.25V10.875V14.5V18.125H10.875H14.5H18.125V14.5V10.875V7.25H14.5H10.875H7.25ZM21.75 7.25V10.875H25.375H29H32.625H36.25H39.875H43.5H47.125H50.75V7.25H47.125H43.5H39.875H36.25H32.625H29H25.375H21.75ZM50.75 14.5H47.125H43.5H39.875H36.25H32.625H29H25.375H21.75V18.125H25.375H29H32.625H36.25H39.875H43.5H47.125H50.75V14.5Z" fill="#CFCFCF"/>
<path d="M61.625 10.875V7.25H58V10.875V14.5V18.125V21.75H61.625H65.25H68.875H72.5V18.125H68.875V14.5H65.25V10.875H61.625Z" fill="var(--fill-0, white)"/>
<path d="M25.375 7.25H21.75V10.875H25.375H29H32.625H36.25H39.875H43.5H47.125H50.75V7.25H47.125H43.5H39.875H36.25H32.625H29H25.375Z" fill="#656565"/>
<path d="M10.875 7.25H7.25V10.875V14.5V18.125H10.875H14.5H18.125V14.5V10.875V7.25H14.5H10.875ZM10.875 10.875H14.5V14.5H10.875V10.875Z" fill="black"/>
<path d="M54.375 39.875H50.75V43.5V47.125H54.375V43.5V39.875Z" fill="black"/>
<path d="M58 36.25H54.375V39.875H58V43.5V47.125H61.625V43.5V39.875V36.25H58Z" fill="black"/>
<path d="M65.25 47.125H61.625V50.75H65.25H68.875V47.125H65.25Z" fill="black"/>
<path d="M68.875 36.25H72.5V39.875V43.5V47.125H68.875V43.5V39.875V36.25Z" fill="black"/>
<path d="M47.125 36.25H43.5V39.875V43.5V47.125V50.75H47.125V47.125V43.5V39.875V36.25Z" fill="black"/>
<path d="M54.375 54.375H50.75V58H54.375H58H61.625H65.25V54.375H61.625H58H54.375Z" fill="black"/>
<path d="M58 39.875H54.375V43.5V47.125H58V43.5V39.875Z" fill="var(--fill-0, white)"/>
<path d="M54.375 29H50.75V32.625H54.375H58H61.625H65.25V29H61.625H58H54.375Z" fill="black"/>
<path fill-rule="evenodd" clip-rule="evenodd" d="M25.375 50.75H29H32.625V47.125H29V43.5V39.875H32.625V36.25H29H25.375V32.625H21.75V36.25H18.125H14.5V39.875H18.125V43.5V47.125H14.5V50.75H18.125H21.75V54.375H25.375V50.75Z" fill="black"/>
<path fill-rule="evenodd" clip-rule="evenodd" d="M14.5 32.625V36.25H10.875V32.625H14.5ZM32.625 36.25H29H25.375V32.625H21.75V36.25H18.125H14.5V39.875H18.125V43.5V47.125H14.5V50.75H10.875V54.375H14.5V50.75H18.125H21.75V54.375H25.375V50.75H29H32.625V54.375H36.25V50.75H32.625V47.125H29V43.5V39.875H32.625V36.25ZM32.625 36.25V32.625H36.25V36.25H32.625ZM50.75 54.375H47.125V50.75H50.75V54.375ZM50.75 54.375H54.375H58H61.625H65.25V58H61.625H58H54.375H50.75V54.375ZM47.125 36.25V39.875V43.5V47.125V50.75H43.5V47.125V43.5V39.875V36.25H47.125ZM47.125 36.25H50.75V32.625H54.375H58H61.625H65.25V36.25H68.875V39.875V43.5V47.125H65.25H61.625V43.5V39.875V36.25H58H54.375V39.875H50.75V43.5V47.125H54.375V50.75H58V47.125H61.625V50.75H65.25H68.875V47.125H72.5V43.5V39.875V36.25H68.875V32.625H65.25V29H61.625H58H54.375H50.75V32.625H47.125V36.25Z" fill="var(--fill-0, white)"/>
<path fill-rule="evenodd" clip-rule="evenodd" d="M14.5 32.625V36.25H10.875V32.625H14.5ZM32.625 36.25H29H25.375V32.625H21.75V36.25H18.125H14.5V39.875H18.125V43.5V47.125H14.5V50.75H10.875V54.375H14.5V50.75H18.125H21.75V54.375H25.375V50.75H29H32.625V54.375H36.25V50.75H32.625V47.125H29V43.5V39.875H32.625V36.25ZM32.625 36.25V32.625H36.25V36.25H32.625ZM50.75 54.375H47.125V50.75H50.75V54.375ZM50.75 54.375H54.375H58H61.625H65.25V58H61.625H58H54.375H50.75V54.375ZM47.125 36.25V39.875V43.5V47.125V50.75H43.5V47.125V43.5V39.875V36.25H47.125ZM47.125 36.25H50.75V32.625H54.375H58H61.625H65.25V36.25H68.875V39.875V43.5V47.125H65.25H61.625V43.5V39.875V36.25H58H54.375V39.875H50.75V43.5V47.125H54.375V50.75H58V47.125H61.625V50.75H65.25H68.875V47.125H72.5V43.5V39.875V36.25H68.875V32.625H65.25V29H61.625H58H54.375H50.75V32.625H47.125V36.25Z" fill="var(--fill-0, white)"/>
<path fill-rule="evenodd" clip-rule="evenodd" d="M14.5 32.625V36.25H10.875V32.625H14.5ZM32.625 36.25H29H25.375V32.625H21.75V36.25H18.125H14.5V39.875H18.125V43.5V47.125H14.5V50.75H10.875V54.375H14.5V50.75H18.125H21.75V54.375H25.375V50.75H29H32.625V54.375H36.25V50.75H32.625V47.125H29V43.5V39.875H32.625V36.25ZM32.625 36.25V32.625H36.25V36.25H32.625ZM50.75 54.375H47.125V50.75H50.75V54.375ZM50.75 54.375H54.375H58H61.625H65.25V58H61.625H58H54.375H50.75V54.375ZM47.125 36.25V39.875V43.5V47.125V50.75H43.5V47.125V43.5V39.875V36.25H47.125ZM47.125 36.25H50.75V32.625H54.375H58H61.625H65.25V36.25H68.875V39.875V43.5V47.125H65.25H61.625V43.5V39.875V36.25H58H54.375V39.875H50.75V43.5V47.125H54.375V50.75H58V47.125H61.625V50.75H65.25H68.875V47.125H72.5V43.5V39.875V36.25H68.875V32.625H65.25V29H61.625H58H54.375H50.75V32.625H47.125V36.25Z" fill="var(--fill-0, white)"/>
<path fill-rule="evenodd" clip-rule="evenodd" d="M14.5 32.625V36.25H10.875V32.625H14.5ZM32.625 36.25H29H25.375V32.625H21.75V36.25H18.125H14.5V39.875H18.125V43.5V47.125H14.5V50.75H10.875V54.375H14.5V50.75H18.125H21.75V54.375H25.375V50.75H29H32.625V54.375H36.25V50.75H32.625V47.125H29V43.5V39.875H32.625V36.25ZM32.625 36.25V32.625H36.25V36.25H32.625ZM50.75 54.375H47.125V50.75H50.75V54.375ZM50.75 54.375H54.375H58H61.625H65.25V58H61.625H58H54.375H50.75V54.375ZM47.125 36.25V39.875V43.5V47.125V50.75H43.5V47.125V43.5V39.875V36.25H47.125ZM47.125 36.25H50.75V32.625H54.375H58H61.625H65.25V36.25H68.875V39.875V43.5V47.125H65.25H61.625V43.5V39.875V36.25H58H54.375V39.875H50.75V43.5V47.125H54.375V50.75H58V47.125H61.625V50.75H65.25H68.875V47.125H72.5V43.5V39.875V36.25H68.875V32.625H65.25V29H61.625H58H54.375H50.75V32.625H47.125V36.25Z" fill="var(--fill-0, white)"/>
<path d="M47.125 14.5H43.5H39.875H36.25H32.625H29H25.375H21.75V18.125H25.375H29H32.625H36.25H39.875H43.5H47.125H50.75V14.5H47.125Z" fill="#656565"/>
<path fill-rule="evenodd" clip-rule="evenodd" d="M76.125 29V32.625V36.25V39.875V43.5V47.125V50.75V54.375V58V61.625V65.25V68.875V72.5V76.125V79.75V83.375V87V90.625V94.25V97.875H72.5H68.875H65.25H61.625H58H54.375H50.75H47.125H43.5H39.875H36.25H32.625H29H25.375H21.75H18.125H14.5H10.875H7.25H3.625V94.25V90.625V87V83.375V79.75V76.125V72.5V68.875V65.25V61.625V58V54.375V50.75V47.125V43.5V39.875V36.25V32.625V29V25.375H7.25H10.875H14.5H18.125H21.75H25.375H29H32.625H36.25H39.875H43.5H47.125H50.75H54.375H58H61.625H65.25H68.875H72.5H76.125V29ZM10.875 32.625H14.5V36.25H10.875V32.625ZM32.625 36.25H29H25.375V32.625H21.75V36.25H18.125H14.5V39.875H18.125V43.5V47.125H14.5V50.75H10.875V54.375H14.5V50.75H18.125H21.75V54.375H25.375V50.75H29H32.625V54.375H36.25V50.75H32.625V47.125H29V43.5V39.875H32.625V36.25ZM32.625 36.25V32.625H36.25V36.25H32.625ZM47.125 32.625H50.75V36.25H47.125V32.625ZM47.125 50.75H43.5V47.125V43.5V39.875V36.25H47.125V39.875V43.5V47.125V50.75ZM50.75 54.375H47.125V50.75H50.75V54.375ZM50.75 54.375H54.375H58H61.625H65.25V58H61.625H58H54.375H50.75V54.375ZM65.25 32.625H61.625H58H54.375H50.75V29H54.375H58H61.625H65.25V32.625ZM68.875 36.25H65.25V32.625H68.875V36.25ZM68.875 47.125V43.5V39.875V36.25H72.5V39.875V43.5V47.125H68.875ZM61.625 47.125H65.25H68.875V50.75H65.25H61.625V47.125ZM61.625 47.125H58V50.75H54.375V47.125H50.75V43.5V39.875H54.375V36.25H58H61.625V39.875V43.5V47.125ZM29 90.625V87V83.375H25.375H21.75V87V90.625H18.125V87V83.375H14.5V79.75H18.125H21.75V76.125V72.5H18.125V68.875H21.75H25.375V65.25V61.625H29V65.25V68.875H32.625H36.25V65.25V61.625H39.875V65.25V68.875H43.5V72.5H39.875H36.25V76.125V79.75H39.875V83.375H36.25H32.625V87V90.625H29ZM54.375 65.25H58H61.625V68.875V72.5V76.125V79.75V83.375H58H54.375V79.75V76.125V72.5V68.875V65.25ZM54.375 87H58H61.625V90.625H58H54.375V87Z" fill="var(--fill-0, white)"/>
<path d="M54.375 65.25H58H61.625V68.875V72.5V76.125V79.75V83.375H58H54.375V79.75V76.125V72.5V68.875V65.25Z" fill="black"/>
<path fill-rule="evenodd" clip-rule="evenodd" d="M54.375 87H58H61.625V90.625H58H54.375V87Z" fill="black"/>
<path fill-rule="evenodd" clip-rule="evenodd" d="M32.625 87V83.375H36.25H39.875V79.75H36.25V76.125V72.5H39.875H43.5V68.875H39.875V65.25V61.625H36.25V65.25V68.875H32.625H29V65.25V61.625H25.375V65.25V68.875H21.75H18.125V72.5H21.75V76.125V79.75H18.125H14.5V83.375H18.125V87V90.625H21.75V87V83.375H25.375H29V87V90.625H32.625V87ZM29 72.5H25.375V76.125V79.75H29H32.625V76.125V72.5H29Z" fill="black"/>
<path fill-rule="evenodd" clip-rule="evenodd" d="M29 72.5H25.375V76.125V79.75H29H32.625V76.125V72.5H29Z" fill="var(--fill-0, white)"/>
</g>
</svg>
